<svg xmlns="http://www.w3.org/2000/svg" viewBox="0 0 300 420" width="300" height="420">
<defs>
  <linearGradient id="bg" x1="0%" y1="0%" x2="60%" y2="100%">
    <stop offset="0%"   stop-color="#C2410C"/>
    <stop offset="55%"  stop-color="#EA580C"/>
    <stop offset="100%" stop-color="#FCD34D"/>
  </linearGradient>
  <linearGradient id="panel" x1="0%" y1="0%" x2="0%" y2="100%">
    <stop offset="0%"   stop-color="#7C1D06" stop-opacity="0.82"/>
    <stop offset="100%" stop-color="#7C1D06" stop-opacity="0.96"/>
  </linearGradient>
  <linearGradient id="bottombar" x1="0%" y1="0%" x2="0%" y2="100%">
    <stop offset="0%"   stop-color="#7C1D06" stop-opacity="0.9"/>
    <stop offset="100%" stop-color="#7C1D06" stop-opacity="1"/>
  </linearGradient>
  <filter id="ts" x="-5%" y="-5%" width="110%" height="110%">
    <feDropShadow dx="0" dy="1" stdDeviation="2" flood-color="rgba(0,0,0,0.8)"/>
  </filter>
  <filter id="glow">
    <feGaussianBlur stdDeviation="4" result="blur"/>
    <feMerge><feMergeNode in="blur"/><feMergeNode in="SourceGraphic"/></feMerge>
  </filter>
  <style>text { font-family:'Noto Serif Tamil','Noto Sans Tamil','Latha','Tamil MN',serif; }</style>
</defs>

<!-- background -->
<rect width="300" height="420" fill="url(#bg)"/>

<!-- illustration area (top) -->

  <!-- warm sunset sky -->
  <circle cx="150" cy="80" r="70" fill="rgba(255,200,80,0.15)"/>
  <!-- two figures (grandparent + child silhouette) -->
  <!-- grandparent -->
  <circle cx="110" cy="108" r="14" fill="rgba(255,200,100,0.5)"/>
  <path d="M96,122 Q98,160 110,165 Q122,160 124,122 Q118,118 110,118 Q102,118 96,122Z" fill="rgba(255,190,80,0.45)"/>
  <!-- walking stick -->
  <line x1="96" y1="130" x2="82" y2="170" stroke="rgba(200,150,60,0.5)" stroke-width="2.5" stroke-linecap="round"/>
  <!-- child -->
  <circle cx="180" cy="118" r="10" fill="rgba(255,210,120,0.55)"/>
  <path d="M170,128 Q172,155 180,158 Q188,155 190,128 Q185,124 180,124 Q175,124 170,128Z" fill="rgba(255,200,100,0.5)"/>
  <!-- connecting hand line -->
  <path d="M124,138 Q152,145 170,138" stroke="rgba(255,200,100,0.4)" stroke-width="2" fill="none" stroke-linecap="round"/>
  <!-- ground -->
  <path d="M0,170 Q75,160 150,170 Q225,180 300,165 L300,190 L0,190Z" fill="rgba(60,120,20,0.2)"/>
  <!-- sun -->
  <circle cx="150" cy="55" r="28" fill="rgba(255,200,0,0.5)"/>
  <circle cx="150" cy="55" r="20" fill="rgba(255,220,80,0.6)"/>
  <line x1="180.0" y1="55.0" x2="190.0" y2="55.0" stroke="rgba(255,200,0,0.5)" stroke-width="2" stroke-linecap="round"/><line x1="171.2" y1="76.2" x2="178.3" y2="83.3" stroke="rgba(255,200,0,0.5)" stroke-width="2" stroke-linecap="round"/><line x1="150.0" y1="85.0" x2="150.0" y2="95.0" stroke="rgba(255,200,0,0.5)" stroke-width="2" stroke-linecap="round"/><line x1="128.8" y1="76.2" x2="121.7" y2="83.3" stroke="rgba(255,200,0,0.5)" stroke-width="2" stroke-linecap="round"/><line x1="120.0" y1="55.0" x2="110.0" y2="55.0" stroke="rgba(255,200,0,0.5)" stroke-width="2" stroke-linecap="round"/><line x1="128.8" y1="33.8" x2="121.7" y2="26.7" stroke="rgba(255,200,0,0.5)" stroke-width="2" stroke-linecap="round"/><line x1="150.0" y1="25.0" x2="150.0" y2="15.0" stroke="rgba(255,200,0,0.5)" stroke-width="2" stroke-linecap="round"/><line x1="171.2" y1="33.8" x2="178.3" y2="26.7" stroke="rgba(255,200,0,0.5)" stroke-width="2" stroke-linecap="round"/>
  <text x="32"  y="70" font-size="12" fill="rgba(255,200,80,0.6)">✦</text>
  <text x="258" y="65" font-size="10" fill="rgba(255,200,80,0.6)">✦</text>

<!-- text panel -->
<rect x="0" y="195" width="300" height="225" fill="url(#panel)"/>

<!-- decorative border -->

  <rect x="10" y="10" width="280" height="400" rx="3" fill="none" stroke="#FCD34D" stroke-width="1.2" opacity="0.5"/>
  <rect x="14" y="14" width="272" height="392" rx="2" fill="none" stroke="#FCD34D" stroke-width="0.5" opacity="0.3"/>
  <circle cx="10" cy="10" r="3" fill="#FCD34D" opacity="0.6"/>
  <circle cx="290" cy="10" r="3" fill="#FCD34D" opacity="0.6"/>
  <circle cx="10" cy="410" r="3" fill="#FCD34D" opacity="0.6"/>
  <circle cx="290" cy="410" r="3" fill="#FCD34D" opacity="0.6"/>
  <line x1="10" y1="26" x2="30" y2="26" stroke="#FCD34D" stroke-width="1" opacity="0.5"/>
  <line x1="270" y1="26" x2="290" y2="26" stroke="#FCD34D" stroke-width="1" opacity="0.5"/>
  <line x1="10" y1="394" x2="30" y2="394" stroke="#FCD34D" stroke-width="1" opacity="0.5"/>
  <line x1="270" y1="394" x2="290" y2="394" stroke="#FCD34D" stroke-width="1" opacity="0.5"/>

<!-- category badge -->

  <rect x="18" y="18" width="173" height="24" rx="12" fill="rgba(0,0,0,0.5)"/>
  <text x="28" y="35" font-size="10.5" fill="#FCD34D" font-weight="600" letter-spacing="0.8">சிறுவர் இலக்கியம்</text>

<!-- publisher top-right -->
<text x="282" y="35" text-anchor="end" font-size="9.5" fill="#FDE68A" opacity="0.65" letter-spacing="0.5">வாலு பதிப்பகம்</text>

<!-- thin gold line separator -->
<line x1="30" y1="202" x2="270" y2="202" stroke="#FCD34D" stroke-width="0.8" opacity="0.4"/>

<!-- title -->
<text x="150" y="200" text-anchor="middle" font-size="21" font-weight="bold" fill="white" letter-spacing="0.4" filter="url(#ts)">பேரன் நந்தும்</text>
<text x="150" y="232" text-anchor="middle" font-size="21" font-weight="bold" fill="white" letter-spacing="0.4" filter="url(#ts)">பேரதோக்</text>
<text x="150" y="264" text-anchor="middle" font-size="21" font-weight="bold" fill="white" letter-spacing="0.4" filter="url(#ts)">காப்பு</text>

<!-- ornamental divider -->
<g opacity="0.6">
  <line x1="55"  y1="306" x2="120" y2="306" stroke="#FCD34D" stroke-width="0.8"/>
  <circle cx="150" cy="306" r="3" fill="#FCD34D"/>
  <line x1="180" y1="306" x2="245" y2="306" stroke="#FCD34D" stroke-width="0.8"/>
</g>

<!-- publisher name below divider -->
<text x="150" y="324" text-anchor="middle" font-size="12.5" fill="#FDE68A" letter-spacing="1.5" opacity="0.85">வாலு பதிப்பகம்</text>

<!-- star rating -->
<polygon points="105,348 109.5,351 112,348 110,353 113,356 109.5,355 106,356 107,353" fill="#FCD34D" stroke="#FCD34D" stroke-width="0.8" opacity="0.9"/><polygon points="123,348 127.5,351 130,348 128,353 131,356 127.5,355 124,356 125,353" fill="#FCD34D" stroke="#FCD34D" stroke-width="0.8" opacity="0.9"/><polygon points="141,348 145.5,351 148,348 146,353 149,356 145.5,355 142,356 143,353" fill="#FCD34D" stroke="#FCD34D" stroke-width="0.8" opacity="0.9"/><polygon points="159,348 163.5,351 166,348 164,353 167,356 163.5,355 160,356 161,353" fill="#FCD34D" stroke="#FCD34D" stroke-width="0.8" opacity="0.9"/><polygon points="177,348 181.5,351 184,348 182,353 185,356 181.5,355 178,356 179,353" fill="#FCD34D" stroke="#FCD34D" stroke-width="0.8" opacity="0.9"/>
<text x="201" y="357" font-size="11" fill="#FDE68A" opacity="0.8">4.6</text>

<!-- bottom bar -->
<rect x="0" y="393" width="300" height="27" fill="url(#bottombar)"/>
<line x1="0" y1="393" x2="300" y2="393" stroke="#FCD34D" stroke-width="0.6" opacity="0.4"/>
<text x="18"  y="411" font-size="9.5" fill="#FDE68A" opacity="0.5">ISBN 9789388001009</text>
<text x="282" y="411" font-size="9.5" fill="#FDE68A" opacity="0.5" text-anchor="end">vaalu.in</text>
</svg>